<?xml version="1.0" encoding="UTF-8"?>
<svg width="341px" height="319px" viewBox="0 0 341 319" version="1.1" xmlns="http://www.w3.org/2000/svg" xmlns:xlink="http://www.w3.org/1999/xlink">
    <!-- Generator: Sketch 41.2 (35397) - http://www.bohemiancoding.com/sketch -->
    <title>Group</title>
    <desc>Created with Sketch.</desc>
    <defs></defs>
    <g id="Page-1" stroke="none" stroke-width="1" fill="none" fill-rule="evenodd" stroke-linecap="square">
        <g id="Group" transform="translate(2.000000, 2.000000)" stroke="#000000" stroke-width="2">
            <path d="M230.043888,159.184865 L180.953674,314.800843 L180.65283,315.754517 L179.7535,315.470817 L178.887383,315.774638 L178.556373,314.831011 L111.556373,123.831011 L111.225362,122.887383 L111.332271,122.849882 L69.0016863,3.09087146 L15.3634056,156 L59.5,156 L60.5,156 L60.5,158 L59.5,158 L14.6618349,158 L2.44362706,192.831011 L2.11261652,193.774638 L0.225362404,193.112617 L0.556372943,192.168989 L67.5563729,1.16898946 L67.8873835,0.225362404 L69.0006387,0.615875999 L70.1095763,0.22390567 L70.4428353,1.16674098 L113.880335,124.057366 L114.213594,125.000201 L114.100066,125.04033 L179.712941,312.085989 L228.946845,156.014513 L228.727971,155.381986 L229.19765,155.219462 L229.34717,154.745483 L229.985487,154.946845 L230.618014,154.727971 L230.780538,155.19765 L231.254517,155.34717 L231.053155,155.985487 L284.64357,310.856871 L335.048923,155.691044 L335.357878,154.739968 L337.260031,155.357879 L336.951076,156.308956 L285.72821,313.991382 L285.772029,314.118014 L285.676315,314.151134 L285.462623,314.808956 L285.153667,315.760032 L283.251514,315.142121 L283.56047,314.191044 L283.618806,314.011464 L283.554978,313.827008 L230.043888,159.184865 Z" id="Line"></path>
        </g>
    </g>
</svg>